<svg width="335" height="75" viewBox="0 0 335 75" fill="none" xmlns="http://www.w3.org/2000/svg">
<path fill-rule="evenodd" clip-rule="evenodd" d="M324.95 6.87695H9.67578V7.07579L43.3986 67.2182H292.665L324.95 6.87695ZM325.524 7.07597V6.87695H325.413L325.524 7.07597Z" fill="#F6FF00"/>
<mask id="path-2-inside-1_305_85" fill="white">
<path fill-rule="evenodd" clip-rule="evenodd" d="M333.729 0H0V0.247627L35.6966 75H299.555L333.729 0ZM334.337 0.247609V0H334.219L334.337 0.247609Z"/>
</mask>
<path d="M333.729 0L334.411 0.31098L334.895 -0.75H333.729V0ZM0 0V-0.75H-0.75V0H0ZM0 0.247627H-0.75V0.417513L-0.676793 0.570817L0 0.247627ZM35.6966 75L35.0198 75.3232L35.2236 75.75H35.6966V75ZM299.555 75V75.75H300.037L300.237 75.311L299.555 75ZM334.337 0.247609L333.661 0.570831L335.087 0.247609H334.337ZM334.337 0H335.087V-0.75H334.337V0ZM334.219 0V-0.75H333.03L333.542 0.323222L334.219 0ZM200.237 -0.75H199.487V0.75H200.237V-0.75ZM133.492 0.75H134.242V-0.75H133.492V0.75ZM-0.75 0.099051V0.849051H0.75V0.099051H-0.75ZM0.75 0.148576V-0.601424H-0.75V0.148576H0.75ZM13.6018 30.4718L13.925 31.1486L15.2786 30.5022L14.9554 29.8254L13.6018 30.4718ZM22.0947 44.7759L21.7715 44.0991L20.418 44.7454L20.7411 45.4222L22.0947 44.7759ZM141.24 75.75H141.99V74.25H141.24V75.75ZM194.011 74.25H193.261V75.75H194.011V74.25ZM313.907 45.311L314.218 44.6285L312.853 44.0065L312.542 44.689L313.907 45.311ZM319.377 29.689L319.066 30.3715L320.431 30.9935L320.742 30.311L319.377 29.689ZM334.967 -0.174657L334.644 -0.851434L333.29 -0.20499L333.613 0.471788L334.967 -0.174657ZM333.59 0.422266L333.913 1.09904L335.266 0.452599L334.943 -0.224178L333.59 0.422266ZM334.266 0.75H335.016V-0.75H334.266V0.75ZM334.29 -0.75H333.54V0.75H334.29V-0.75ZM333.587 0.0990436V0.849044H335.087V0.0990436H333.587ZM335.087 0.148565V-0.601435H333.587V0.148565H335.087ZM333.729 -0.75H200.237V0.75H333.729V-0.75ZM133.492 -0.75H0V0.75H133.492V-0.75ZM-0.75 0V0.099051H0.75V0H-0.75ZM-0.75 0.148576V0.247627H0.75V0.148576H-0.75ZM-0.676793 0.570817L13.6018 30.4718L14.9554 29.8254L0.676793 -0.075562L-0.676793 0.570817ZM20.7411 45.4222L35.0198 75.3232L36.3734 74.6768L22.0947 44.7759L20.7411 45.4222ZM35.6966 75.75H141.24V74.25H35.6966V75.75ZM194.011 75.75H299.555V74.25H194.011V75.75ZM300.237 75.311L313.907 45.311L312.542 44.689L298.872 74.689L300.237 75.311ZM320.742 30.311L334.411 0.31098L333.046 -0.31098L319.377 29.689L320.742 30.311ZM335.014 -0.075613L334.967 -0.174657L333.613 0.471788L333.661 0.570831L335.014 -0.075613ZM334.943 -0.224178L334.896 -0.323222L333.542 0.323222L333.59 0.422266L334.943 -0.224178ZM334.219 0.75H334.266V-0.75H334.219V0.75ZM334.29 0.75H334.337V-0.75H334.29V0.75ZM333.587 0V0.0990436H335.087V0H333.587ZM333.587 0.148565V0.247609H335.087V0.148565H333.587ZM333.729 0L335.094 0.62196L336.061 -1.5H333.729V0ZM0 0V-1.5H-1.5V0H0ZM0 0.247627H-1.5V0.587399L-1.35359 0.894006L0 0.247627ZM35.6966 75L34.343 75.6464L34.7506 76.5H35.6966V75ZM299.555 75V76.5H300.52L300.92 75.622L299.555 75ZM334.337 0.247609L332.984 0.894053L335.837 0.247609H334.337ZM334.337 0H335.837V-1.5H334.337V0ZM334.219 0V-1.5H331.84L332.866 0.646444L334.219 0ZM200.237 -1.5H198.737V1.5H200.237V-1.5ZM133.492 1.5H134.992V-1.5H133.492V1.5ZM-1.5 0.099051V1.59905H1.5V0.099051H-1.5ZM1.5 0.148576V-1.35142H-1.5V0.148576H1.5ZM12.925 30.795L13.5714 32.1485L16.2786 30.8558L15.6322 29.5022L12.925 30.795ZM22.7715 44.4527L22.1251 43.0991L19.418 44.3918L20.0644 45.7454L22.7715 44.4527ZM141.24 76.5H142.74V73.5H141.24V76.5ZM194.011 73.5H192.511V76.5H194.011V73.5ZM314.589 45.622L315.211 44.257L312.481 43.0131L311.859 44.378L314.589 45.622ZM318.694 29.378L318.072 30.743L320.802 31.9869L321.424 30.622L318.694 29.378ZM335.644 -0.497879L334.997 -1.85143L332.29 -0.558545L332.936 0.79501L335.644 -0.497879ZM332.913 0.745488L333.559 2.09904L336.266 0.806154L335.62 -0.547401L332.913 0.745488ZM334.266 1.5H335.766V-1.5H334.266V1.5ZM334.29 -1.5H332.79V1.5H334.29V-1.5ZM332.837 0.0990436V1.59904H335.837V0.0990436H332.837ZM335.837 0.148565V-1.35143H332.837V0.148565H335.837ZM333.729 -1.5H200.237V1.5H333.729V-1.5ZM133.492 -1.5H0V1.5H133.492V-1.5ZM-1.5 0V0.099051H1.5V0H-1.5ZM-1.5 0.148576V0.247627H1.5V0.148576H-1.5ZM-1.35359 0.894006L12.925 30.795L15.6322 29.5022L1.35359 -0.398751L-1.35359 0.894006ZM20.0644 45.7454L34.343 75.6464L37.0501 74.3536L22.7715 44.4527L20.0644 45.7454ZM35.6966 76.5H141.24V73.5H35.6966V76.5ZM194.011 76.5H299.555V73.5H194.011V76.5ZM300.92 75.622L314.589 45.622L311.859 44.378L298.19 74.378L300.92 75.622ZM321.424 30.622L335.094 0.62196L332.364 -0.62196L318.694 29.378L321.424 30.622ZM335.691 -0.398835L335.644 -0.497879L332.936 0.79501L332.984 0.894053L335.691 -0.398835ZM335.62 -0.547401L335.573 -0.646444L332.866 0.646444L332.913 0.745488L335.62 -0.547401ZM334.219 1.5H334.266V-1.5H334.219V1.5ZM334.29 1.5H334.337V-1.5H334.29V1.5ZM332.837 0V0.0990436H335.837V0H332.837ZM332.837 0.148565V0.247609H335.837V0.148565H332.837Z" fill="#AAF4FF" fill-opacity="0.5" mask="url(#path-2-inside-1_305_85)"/>
</svg>
