<svg width="13" height="14" viewBox="0 0 13 14" fill="none" xmlns="http://www.w3.org/2000/svg">
<path d="M6.6665 8.4C6.47762 8.4 6.31939 8.3328 6.19184 8.1984C6.06384 8.06447 5.99984 7.89833 5.99984 7.7C5.99984 7.50167 6.06384 7.3353 6.19184 7.2009C6.31939 7.06697 6.47762 7 6.6665 7C6.85539 7 7.01384 7.06697 7.14184 7.2009C7.26939 7.3353 7.33317 7.50167 7.33317 7.7C7.33317 7.89833 7.26939 8.06447 7.14184 8.1984C7.01384 8.3328 6.85539 8.4 6.6665 8.4ZM3.99984 8.4C3.81095 8.4 3.6525 8.3328 3.5245 8.1984C3.39695 8.06447 3.33317 7.89833 3.33317 7.7C3.33317 7.50167 3.39695 7.3353 3.5245 7.2009C3.6525 7.06697 3.81095 7 3.99984 7C4.18873 7 4.34717 7.06697 4.47517 7.2009C4.60273 7.3353 4.6665 7.50167 4.6665 7.7C4.6665 7.89833 4.60273 8.06447 4.47517 8.1984C4.34717 8.3328 4.18873 8.4 3.99984 8.4ZM9.33317 8.4C9.14428 8.4 8.98606 8.3328 8.8585 8.1984C8.7305 8.06447 8.6665 7.89833 8.6665 7.7C8.6665 7.50167 8.7305 7.3353 8.8585 7.2009C8.98606 7.06697 9.14428 7 9.33317 7C9.52206 7 9.68028 7.06697 9.80784 7.2009C9.93584 7.3353 9.99984 7.50167 9.99984 7.7C9.99984 7.89833 9.93584 8.06447 9.80784 8.1984C9.68028 8.3328 9.52206 8.4 9.33317 8.4ZM6.6665 11.2C6.47762 11.2 6.31939 11.1328 6.19184 10.9984C6.06384 10.8645 5.99984 10.6983 5.99984 10.5C5.99984 10.3017 6.06384 10.1355 6.19184 10.0016C6.31939 9.8672 6.47762 9.8 6.6665 9.8C6.85539 9.8 7.01384 9.8672 7.14184 10.0016C7.26939 10.1355 7.33317 10.3017 7.33317 10.5C7.33317 10.6983 7.26939 10.8645 7.14184 10.9984C7.01384 11.1328 6.85539 11.2 6.6665 11.2ZM3.99984 11.2C3.81095 11.2 3.6525 11.1328 3.5245 10.9984C3.39695 10.8645 3.33317 10.6983 3.33317 10.5C3.33317 10.3017 3.39695 10.1355 3.5245 10.0016C3.6525 9.8672 3.81095 9.8 3.99984 9.8C4.18873 9.8 4.34717 9.8672 4.47517 10.0016C4.60273 10.1355 4.6665 10.3017 4.6665 10.5C4.6665 10.6983 4.60273 10.8645 4.47517 10.9984C4.34717 11.1328 4.18873 11.2 3.99984 11.2ZM9.33317 11.2C9.14428 11.2 8.98606 11.1328 8.8585 10.9984C8.7305 10.8645 8.6665 10.6983 8.6665 10.5C8.6665 10.3017 8.7305 10.1355 8.8585 10.0016C8.98606 9.8672 9.14428 9.8 9.33317 9.8C9.52206 9.8 9.68028 9.8672 9.80784 10.0016C9.93584 10.1355 9.99984 10.3017 9.99984 10.5C9.99984 10.6983 9.93584 10.8645 9.80784 10.9984C9.68028 11.1328 9.52206 11.2 9.33317 11.2ZM1.99984 14C1.63317 14 1.31917 13.863 1.05784 13.5891C0.796948 13.3147 0.666504 12.985 0.666504 12.6V2.8C0.666504 2.415 0.796948 2.08553 1.05784 1.8116C1.31917 1.5372 1.63317 1.4 1.99984 1.4H2.6665V0.7C2.6665 0.501667 2.73028 0.3353 2.85784 0.2009C2.98584 0.0669666 3.14428 0 3.33317 0C3.52206 0 3.6805 0.0669666 3.8085 0.2009C3.93606 0.3353 3.99984 0.501667 3.99984 0.7V1.4H9.33317V0.7C9.33317 0.501667 9.39717 0.3353 9.52517 0.2009C9.65273 0.0669666 9.81095 0 9.99984 0C10.1887 0 10.3469 0.0669666 10.4745 0.2009C10.6025 0.3353 10.6665 0.501667 10.6665 0.7V1.4H11.3332C11.6998 1.4 12.0138 1.5372 12.2752 1.8116C12.5361 2.08553 12.6665 2.415 12.6665 2.8V12.6C12.6665 12.985 12.5361 13.3147 12.2752 13.5891C12.0138 13.863 11.6998 14 11.3332 14H1.99984ZM1.99984 12.6H11.3332V5.6H1.99984V12.6Z" fill="#F6FF00"/>
</svg>
