<svg width="33" height="27" viewBox="0 0 33 27" fill="none" xmlns="http://www.w3.org/2000/svg">
<path d="M31.865 6.14602C31.865 3.30478 26.4912 1.00195 19.8622 1.00195C13.2332 1.00195 7.85938 3.30478 7.85938 6.14602M31.865 6.14602V13.0048C31.865 14.7538 29.8314 16.297 26.721 17.2264C24.7765 17.8093 22.412 18.1489 19.8622 18.1489C17.3125 18.1489 14.9479 17.8076 13.0034 17.2264C9.89471 16.297 7.85938 14.7538 7.85938 13.0048V6.14602M31.865 6.14602C31.865 7.89501 29.8314 9.43823 26.721 10.3676C24.7765 10.9506 22.412 11.2901 19.8622 11.2901C17.3125 11.2901 14.9479 10.9489 13.0034 10.3676C9.89471 9.43823 7.85938 7.89501 7.85938 6.14602M1 13.0059V19.8647C1 21.6137 3.03534 23.1569 6.14407 24.0863C8.08853 24.6693 10.4531 25.0088 13.0028 25.0088C15.5526 25.0088 17.9171 24.6676 19.8616 24.0863C22.9703 23.1569 25.0057 21.6137 25.0057 19.8647V18.15M1 13.0059C1 10.9535 3.80352 9.18219 7.85876 8.35742M1 13.0059C1 14.7549 3.03534 16.2982 6.14407 17.2275C8.08853 17.8105 10.4531 18.15 13.0028 18.15C14.1945 18.15 15.3451 18.0763 16.4322 17.9374" stroke="#F6FF00" stroke-width="2" stroke-linecap="round" stroke-linejoin="round"/>
</svg>
