<svg width="30" height="30" viewBox="0 0 30 30" fill="none" xmlns="http://www.w3.org/2000/svg">
<path fill-rule="evenodd" clip-rule="evenodd" d="M15 30C23.2843 30 30 23.2843 30 15C30 6.71573 23.2843 0 15 0C6.71573 0 0 6.71573 0 15C0 23.2843 6.71573 30 15 30ZM18.4985 6.99907C19.9986 7.259 21.4386 7.70888 22.7687 8.32872C22.7887 8.32872 22.7987 8.33872 22.8087 8.34872C25.1787 11.8378 26.3487 15.7668 25.9087 20.2956C25.9087 20.3156 25.8987 20.3356 25.8787 20.3456C24.0787 21.6652 22.3486 22.465 20.6286 22.9949C20.5986 23.0049 20.5686 22.9949 20.5386 22.9849C20.1486 22.435 19.7886 21.8552 19.4686 21.2453C19.4586 21.2153 19.4686 21.1654 19.5086 21.1554C20.0786 20.9354 20.6286 20.6855 21.1486 20.3756C21.1986 20.3556 21.1986 20.2956 21.1586 20.2656C21.1036 20.2206 21.0486 20.1781 20.9936 20.1356C20.9386 20.0931 20.8836 20.0506 20.8286 20.0057C20.8086 19.9857 20.7786 19.9857 20.7586 19.9957C17.3585 21.5653 13.6484 21.5653 10.2083 19.9957C10.1883 19.9857 10.1583 19.9857 10.1383 20.0057C10.0833 20.0457 10.0283 20.0881 9.9733 20.1306C9.9183 20.1731 9.8633 20.2156 9.8083 20.2556C9.77829 20.2856 9.7783 20.3456 9.8183 20.3656C10.3483 20.6655 10.8883 20.9254 11.4583 21.1454C11.4983 21.1554 11.5183 21.1954 11.4983 21.2353C11.1883 21.8452 10.8283 22.425 10.4283 22.9749C10.4183 22.9949 10.3883 23.0049 10.3583 22.9949C8.64826 22.465 6.91822 21.6652 5.11817 20.3456C5.09817 20.3356 5.08817 20.3156 5.08817 20.2956C4.71816 16.3766 5.46818 12.4177 8.18825 8.34872C8.19825 8.33872 8.20825 8.32872 8.21825 8.32872C9.55829 7.70888 10.9883 7.259 12.4884 6.99907C12.5184 6.99907 12.5484 7.00907 12.5584 7.02906C12.7484 7.35898 12.9584 7.77887 13.0984 8.11878C14.6894 7.87884 16.3075 7.87884 17.8985 8.11878C18.0385 7.78886 18.2485 7.35898 18.4285 7.02906C18.4373 7.01925 18.4481 7.01148 18.4602 7.0063C18.4723 7.00112 18.4854 6.99865 18.4985 6.99907ZM10.1283 15.7868C10.1283 16.9565 10.9883 17.9062 12.0184 17.9062C13.0684 17.9062 13.9084 16.9565 13.9084 15.7868C13.9184 14.6271 13.0784 13.6673 12.0184 13.6673C10.9683 13.6673 10.1283 14.6171 10.1283 15.7868ZM17.0985 15.7868C17.0985 16.9565 17.9585 17.9062 18.9885 17.9062C20.0486 17.9062 20.8786 16.9565 20.8786 15.7868C20.8886 14.6271 20.0486 13.6673 18.9885 13.6673C17.9385 13.6673 17.0985 14.6171 17.0985 15.7868Z" fill="#191D1E"/>
</svg>
