<svg width="30" height="30" viewBox="0 0 30 30" fill="none" xmlns="http://www.w3.org/2000/svg">
<path fill-rule="evenodd" clip-rule="evenodd" d="M15 30C23.2852 30 30 23.2852 30 15C30 6.71484 23.2852 0 15 0C6.71484 0 0 6.71484 0 15C0 23.2852 6.71484 30 15 30ZM17.2461 5.00977C16.668 5.00195 15.875 5 14.5 5C11.6484 5 11.293 5.01367 10.1719 5.0625C9.05078 5.11523 8.29297 5.29102 7.62109 5.55078C6.92188 5.81445 6.28516 6.22852 5.76172 6.76172C5.22656 7.28711 4.8125 7.92188 4.55078 8.62305C4.28906 9.29297 4.11719 10.0527 4.0625 11.1719C4.01172 12.291 4 12.6465 4 15.5C4 18.3535 4.01172 18.709 4.0625 19.8281C4.11719 20.9473 4.28906 21.709 4.55078 22.377C4.81641 23.0781 5.22656 23.7129 5.76172 24.2383C6.07031 24.5527 6.41797 24.8242 6.79297 25.0488C7.05469 25.2051 7.33203 25.3398 7.62109 25.4492C8.29297 25.709 9.05469 25.8848 10.1719 25.9375C11.293 25.9902 11.6484 26 14.5 26C17.3516 26 17.707 25.9863 18.8281 25.9375C19.9453 25.8848 20.707 25.709 21.3789 25.4492C22.0781 25.1855 22.7148 24.7715 23.2383 24.2383C23.7734 23.7129 24.1875 23.0781 24.4492 22.377C24.707 21.707 24.8828 20.9473 24.9375 19.8281C24.9883 18.709 25 18.3535 25 15.5C25 12.6465 24.9883 12.291 24.9375 11.1719C24.9141 10.7266 24.875 10.3379 24.8164 9.98828C24.7305 9.46094 24.6055 9.02539 24.4492 8.62305C24.1836 7.92188 23.7734 7.28711 23.2383 6.76172C22.6562 6.17969 22.0703 5.81836 21.3789 5.55078C20.707 5.29102 19.9453 5.11523 18.8281 5.0625C18.2461 5.03516 17.8711 5.01953 17.2461 5.00977ZM10.7891 11.7871C11.7734 10.8027 13.1094 10.25 14.5 10.25C15.168 10.25 15.8203 10.377 16.4297 10.6191C17.0898 10.8809 17.6992 11.2754 18.2109 11.7871C19.1953 12.7715 19.75 14.1074 19.75 15.5C19.75 16.8926 19.1953 18.2285 18.2109 19.2129C17.2266 20.1973 15.8906 20.75 14.5 20.75C13.1094 20.75 11.7734 20.1973 10.7891 19.2129C9.80469 18.2285 9.25 16.8926 9.25 15.5C9.25 14.1074 9.80469 12.7715 10.7891 11.7871ZM21.3008 9.73438C21.3164 9.81641 21.3242 9.90234 21.3242 9.98828C21.3242 10.3359 21.1875 10.6699 20.9414 10.916C20.6953 11.1621 20.3594 11.3008 20.0117 11.3008C19.6641 11.3008 19.332 11.1621 19.0859 10.916C18.8398 10.6699 18.6992 10.3359 18.6992 9.98828C18.6992 9.63867 18.8398 9.30469 19.0859 9.05859C19.332 8.8125 19.6641 8.67578 20.0117 8.67578C20.3594 8.67578 20.6953 8.8125 20.9414 9.05859C21.125 9.24414 21.25 9.48047 21.3008 9.73438ZM16.7266 13.2734C16.1367 12.6816 15.3359 12.3496 14.5 12.3496C13.6641 12.3496 12.8633 12.6816 12.2734 13.2734C11.6836 13.8633 11.3516 14.6641 11.3516 15.5C11.3516 16.3359 11.6836 17.1367 12.2734 17.7266C12.8633 18.3184 13.6641 18.6504 14.5 18.6504C15.3359 18.6504 16.1367 18.3184 16.7266 17.7266C17.3164 17.1367 17.6484 16.3359 17.6484 15.5C17.6484 14.6641 17.3164 13.8633 16.7266 13.2734Z" fill="#191D1E"/>
</svg>
