<svg width="13" height="14" viewBox="0 0 13 14" fill="none" xmlns="http://www.w3.org/2000/svg">
<path d="M6.3335 7.13376C6.746 7.13376 7.09925 6.99394 7.39325 6.71429C7.68675 6.43513 7.8335 6.09936 7.8335 5.70701C7.8335 5.31465 7.68675 4.97865 7.39325 4.69901C7.09925 4.41984 6.746 4.28025 6.3335 4.28025C5.921 4.28025 5.568 4.41984 5.2745 4.69901C4.9805 4.97865 4.8335 5.31465 4.8335 5.70701C4.8335 6.09936 4.9805 6.43513 5.2745 6.71429C5.568 6.99394 5.921 7.13376 6.3335 7.13376ZM6.3335 14C6.2335 14 6.1335 13.9822 6.0335 13.9465C5.9335 13.9108 5.846 13.8633 5.771 13.8038C3.946 12.2701 2.5835 10.8464 1.6835 9.53284C0.783496 8.2188 0.333496 6.99108 0.333496 5.84968C0.333496 4.06624 0.936746 2.64544 2.14325 1.58726C3.34925 0.529087 4.746 0 6.3335 0C7.921 0 9.31775 0.529087 10.5237 1.58726C11.7302 2.64544 12.3335 4.06624 12.3335 5.84968C12.3335 6.99108 11.8835 8.2188 10.9835 9.53284C10.0835 10.8464 8.721 12.2701 6.896 13.8038C6.821 13.8633 6.7335 13.9108 6.6335 13.9465C6.5335 13.9822 6.4335 14 6.3335 14Z" fill="#F6FF00"/>
</svg>
