<svg width="107" height="105" viewBox="0 0 107 105" fill="none" xmlns="http://www.w3.org/2000/svg">
<path fill-rule="evenodd" clip-rule="evenodd" d="M105.906 47.2383H104.691H103.688H88.125H86.4492L85.8125 48.7891L77.4805 69.0918L69.9062 40.4902L65.0469 40.5996L67.4883 41.1289C65.0469 40.5996 65.0469 40.5996 65.043 40.6094L65.0352 40.6426L65.0078 40.7715L64.8984 41.2793L64.4766 43.2051L62.9648 50.0762C61.7109 55.7598 60.0234 63.332 58.3008 70.8828C56.9219 76.9297 55.5195 82.9531 54.3008 87.9824L54.1523 85.8555C53.5234 76.8047 52.793 64.7676 52.0859 52.6816C51.6836 45.8086 51.2891 38.9336 50.9258 32.5859L50.1562 19.2676C49.8867 14.6621 49.6562 10.7793 49.4766 7.99219C49.3867 6.59961 49.3125 5.47266 49.25 4.66016C49.2188 4.25781 49.1914 3.91992 49.1641 3.66211C49.1445 3.47266 49.1133 3.11523 49.0391 2.83789C49.0117 2.72656 48.8438 2.06055 48.2188 1.53516C47.7969 1.17969 47.1797 0.902344 46.4492 0.947266C46.0859 0.970703 45.7812 1.06836 45.5391 1.17969C45.3398 1.27148 45.1875 1.37305 45.082 1.45508C44.6602 1.77344 44.4492 2.14648 44.3984 2.23438C44.3164 2.38281 44.2617 2.50977 44.2305 2.58398C44.1875 2.6875 44.1484 2.79883 44.1133 2.9082C44.0586 3.08008 44.0117 3.24805 43.9766 3.38477C43.8438 3.9043 43.6719 4.67578 43.4766 5.625C43.082 7.54102 42.543 10.3594 41.9141 13.7637C40.6602 20.582 39.0273 29.8281 37.4102 39.1191C35.7969 48.4121 34.1914 57.7598 32.9961 64.7832L32.2617 69.0918L21.75 48.5977L21.0547 47.2383H19.5273H1.51562H0.296875C2.79297 20.7422 25.4844 0 53.1016 0C80.7188 0 103.41 20.7422 105.906 47.2383ZM106.133 52.2383H104.691H103.688H89.8008L79.2812 77.873L76.457 84.7559L74.5547 77.5645L67.7148 51.75C66.4727 57.3691 64.8438 64.6895 63.1758 71.9961C61.4492 79.5586 59.6836 87.1211 58.2734 92.7617C57.5703 95.5762 56.9453 97.9453 56.457 99.6035L56.1406 100.627C56.0156 101.016 55.8984 101.359 55.7852 101.645C55.6953 101.881 55.5625 102.201 55.3828 102.492C55.3438 102.561 55.2656 102.689 55.1406 102.842C55.0469 102.957 54.9258 103.084 54.7812 103.207C54.4805 103.461 53.3672 104.23 52 103.559C51.332 103.23 51.0117 102.705 50.9336 102.574C50.8086 102.369 50.7383 102.186 50.6992 102.084C50.6211 101.873 50.5703 101.668 50.5391 101.529C50.4727 101.23 50.418 100.865 50.3633 100.48C50.2539 99.6914 50.1406 98.5898 50.0156 97.2461C49.7656 94.5449 49.4766 90.7363 49.1641 86.1992C48.5352 77.1211 47.8047 65.0605 47.0938 52.9746L46.5664 43.9141L45.9336 32.8613L45.3555 22.8281C44.4102 28.1035 43.3711 34.0273 42.3359 39.9746C40.7227 49.2617 39.1211 58.6035 37.9258 65.623L36.4805 74.1152L36.0781 76.4961L35.9688 77.125L35.9414 77.2852L35.9336 77.3398L34.6797 84.7637L31.2461 78.0645L18 52.2383H1.51562H0.0703125C0.144531 80.9551 23.8594 104.211 53.1016 104.211C82.3438 104.211 106.059 80.9551 106.133 52.2383Z" fill="#111111"/>
</svg>
