<svg width="15" height="31" viewBox="0 0 15 31" fill="none" xmlns="http://www.w3.org/2000/svg">
<path d="M1.875 0.00561523C1.37772 0.00561523 0.900806 0.203159 0.549175 0.55479C0.197544 0.906421 0 1.38333 0 1.88062V28.1306C0 28.6279 0.197544 29.1048 0.549175 29.4564C0.900806 29.8081 1.37772 30.0056 1.875 30.0056H13.125C13.6223 30.0056 14.0992 29.8081 14.4508 29.4564C14.8025 29.1048 15 28.6279 15 28.1306V1.88062C15 1.38333 14.8025 0.906421 14.4508 0.55479C14.0992 0.203159 13.6223 0.00561523 13.125 0.00561523L1.875 0.00561523ZM2.8125 26.2556C3.06114 26.2556 3.2996 26.3544 3.47541 26.5302C3.65123 26.706 3.75 26.9445 3.75 27.1931C3.75 27.4418 3.65123 27.6802 3.47541 27.856C3.2996 28.0318 3.06114 28.1306 2.8125 28.1306C2.56386 28.1306 2.3254 28.0318 2.14959 27.856C1.97377 27.6802 1.875 27.4418 1.875 27.1931C1.875 26.9445 1.97377 26.706 2.14959 26.5302C2.3254 26.3544 2.56386 26.2556 2.8125 26.2556ZM6.5625 26.2556C6.81114 26.2556 7.0496 26.3544 7.22541 26.5302C7.40123 26.706 7.5 26.9445 7.5 27.1931C7.5 27.4418 7.40123 27.6802 7.22541 27.856C7.0496 28.0318 6.81114 28.1306 6.5625 28.1306C6.31386 28.1306 6.0754 28.0318 5.89959 27.856C5.72377 27.6802 5.625 27.4418 5.625 27.1931C5.625 26.9445 5.72377 26.706 5.89959 26.5302C6.0754 26.3544 6.31386 26.2556 6.5625 26.2556ZM1.875 2.81812C1.875 2.56947 1.97377 2.33102 2.14959 2.1552C2.3254 1.97939 2.56386 1.88062 2.8125 1.88062H12.1875C12.4361 1.88062 12.6746 1.97939 12.8504 2.1552C13.0262 2.33102 13.125 2.56947 13.125 2.81812C13.125 3.06676 13.0262 3.30521 12.8504 3.48103C12.6746 3.65684 12.4361 3.75562 12.1875 3.75562H2.8125C2.56386 3.75562 2.3254 3.65684 2.14959 3.48103C1.97377 3.30521 1.875 3.06676 1.875 2.81812ZM2.8125 5.63062H12.1875C12.4361 5.63062 12.6746 5.72939 12.8504 5.9052C13.0262 6.08102 13.125 6.31947 13.125 6.56812C13.125 6.81676 13.0262 7.05521 12.8504 7.23103C12.6746 7.40684 12.4361 7.50562 12.1875 7.50562H2.8125C2.56386 7.50562 2.3254 7.40684 2.14959 7.23103C1.97377 7.05521 1.875 6.81676 1.875 6.56812C1.875 6.31947 1.97377 6.08102 2.14959 5.9052C2.3254 5.72939 2.56386 5.63062 2.8125 5.63062Z" fill="#F6FF00"/>
</svg>
