<svg width="105" height="16" viewBox="0 0 105 16" fill="none" xmlns="http://www.w3.org/2000/svg">
<path d="M3.22105 16L4.58947 10.0842L0 6.10526L6.06316 5.57895L8.42105 0L10.7789 5.57895L16.8421 6.10526L12.2526 10.0842L13.6211 16L8.42105 12.8632L3.22105 16Z" fill="#F6FF00"/>
<path d="M25.0632 16L26.4316 10.0842L21.8421 6.10526L27.9053 5.57895L30.2632 0L32.6211 5.57895L38.6842 6.10526L34.0947 10.0842L35.4632 16L30.2632 12.8632L25.0632 16Z" fill="#F6FF00"/>
<path d="M46.9053 16L48.2737 10.0842L43.6842 6.10526L49.7474 5.57895L52.1053 0L54.4632 5.57895L60.5263 6.10526L55.9368 10.0842L57.3053 16L52.1053 12.8632L46.9053 16Z" fill="#F6FF00"/>
<path d="M68.7474 16L70.1158 10.0842L65.5263 6.10526L71.5895 5.57895L73.9474 0L76.3053 5.57895L82.3684 6.10526L77.779 10.0842L79.1474 16L73.9474 12.8632L68.7474 16Z" fill="#F6FF00"/>
<path d="M90.5895 16L91.9579 10.0842L87.3684 6.10526L93.4316 5.57895L95.7895 0L98.1474 5.57895L104.211 6.10526L99.6211 10.0842L100.989 16L95.7895 12.8632L90.5895 16Z" fill="#F6FF00"/>
</svg>
