<svg width="14" height="16" viewBox="0 0 14 16" fill="none" xmlns="http://www.w3.org/2000/svg">
<path d="M13.3598 0.831325C13.5537 2.53357 13.3628 4.23935 12.7871 5.94869C12.212 7.65849 11.3712 9.21328 10.2647 10.613C9.15881 12.0133 7.83991 13.1918 6.308 14.1487C4.77667 15.106 3.15906 15.6891 1.45518 15.898C1.21743 15.9271 1.01028 15.8723 0.833748 15.7333C0.657214 15.5944 0.555422 15.4062 0.528372 15.1687L0.163196 11.9621C0.142157 11.7774 0.18281 11.6052 0.285156 11.4454C0.387501 11.2857 0.52963 11.1813 0.711542 11.1323L3.4267 10.2776C3.60861 10.2285 3.77725 10.2111 3.93261 10.2252C4.08856 10.2398 4.23273 10.2992 4.36513 10.4034L6.52317 12.0656C7.41106 11.3948 8.22373 10.5927 8.96119 9.65937C9.69864 8.72603 10.3141 7.72069 10.8074 6.64334L8.73315 5.01105C8.60075 4.90686 8.49379 4.76263 8.41227 4.57835C8.33134 4.39453 8.29356 4.20863 8.29894 4.02065L8.54261 1.22115C8.5612 1.03155 8.63294 0.868887 8.75784 0.733157C8.88327 0.597362 9.03844 0.518131 9.22336 0.495463L12.433 0.102007C12.6708 0.0728624 12.8779 0.127748 13.0544 0.266665C13.231 0.405583 13.3328 0.593804 13.3598 0.831325Z" fill="#F6FF00"/>
</svg>
