<svg width="30" height="30" viewBox="0 0 30 30" fill="none" xmlns="http://www.w3.org/2000/svg">
<path fill-rule="evenodd" clip-rule="evenodd" d="M15 30C23.2852 30 30 23.2852 30 15C30 6.71484 23.2852 0 15 0C6.71484 0 0 6.71484 0 15C0 23.2852 6.71484 30 15 30ZM26.4609 7.53125C26.4961 7.69531 26.4766 7.89258 26.4102 8.11133C26.1211 9.54102 23.7305 13.334 22.9805 14.5234L22.7578 14.8867C22.5625 15.2266 22.4492 15.4414 22.5156 15.7129C22.5469 15.8516 22.625 16.0039 22.7578 16.1953C22.9023 16.4043 23.2031 16.7227 23.5469 17.0879C23.9062 17.4668 24.3125 17.8965 24.6367 18.3027C25.8008 19.7266 26.7031 20.9219 26.9414 21.748C27.1523 22.5723 26.7812 23 25.9883 23H23.2617C22.5352 23 22.1641 22.5547 21.3711 21.6016C21.0312 21.1934 20.6133 20.6934 20.0586 20.0957C18.4414 18.416 17.7266 18.1895 17.332 18.1895C16.7734 18.1895 16.6133 18.332 16.6133 19.1855V21.832C16.6133 22.5449 16.4023 22.9707 14.6562 22.9707C11.7695 22.9707 8.56641 21.0898 6.31641 17.5898C2.92578 12.4668 2 8.59375 2 7.82617C2 7.6582 2.01953 7.49414 2.09375 7.35742C2.20703 7.14648 2.44531 7 2.92578 7H5.67969C6.36719 7 6.63672 7.3125 6.89844 8.14258C8.24609 12.3281 10.5 16 11.4258 16C11.7734 16 11.9297 15.8281 11.9297 14.8887V10.5586C11.8633 9.32812 11.4648 8.79297 11.1719 8.39453C10.9883 8.14844 10.8438 7.95508 10.8438 7.68359C10.8438 7.5332 10.8945 7.38281 10.9883 7.26172C11.1055 7.10742 11.293 7 11.5312 7H15.8203C16.4023 7 16.6133 7.3418 16.6133 8.08203V13.918C16.6133 14.166 16.6523 14.3516 16.7109 14.4844C16.7969 14.6895 16.9297 14.7734 17.0391 14.7734C17.3828 14.7734 17.6758 14.5449 18.3086 13.8613C20.2695 11.498 21.6719 7.85352 21.6719 7.85352C21.7773 7.61523 21.9219 7.38672 22.1484 7.23047C22.3281 7.10742 22.5586 7.0293 22.8633 7.0293H25.5898C26.125 7.0293 26.3906 7.22266 26.4609 7.53125Z" fill="#191D1E"/>
</svg>
